<svg xmlns="http://www.w3.org/2000/svg" viewBox="-225.5 -146.0 1160 1160"><title>SARV Labs</title><style>.bg{fill:#043D40}.l{fill:#FAF4EA}.g{fill:#DCB468}@media (prefers-color-scheme: dark){.bg{fill:#FAF4EA}.l{fill:#043D40}.g{fill:#C4923E}}</style><rect x="-225.5" y="-146.0" width="1160" height="1160" rx="261.0" class="bg"/><path class="l" d="M18.38,415.25C10.26,415.18 3.48,415.03 3.31,414.92C2.87,414.63 2.92,414.07 3.59,412.11C4.86,408.38 6.21,406.39 8.56,404.79C9.88,403.89 10.94,403.47 13.87,402.71C15.86,402.19 16.21,402.19 58.88,402.12C82.53,402.09 102.38,401.99 103.00,401.90C103.62,401.81 105.53,401.63 107.25,401.50C114.66,400.91 116.56,400.72 119.75,400.25C121.61,399.97 123.97,399.58 125.00,399.38C126.03,399.18 128.55,398.72 130.60,398.36C148.77,395.19 163.53,389.81 176.19,381.77C184.58,376.43 185.84,375.57 188.25,373.55C190.48,371.68 195.75,366.13 199.11,362.14C201.69,359.06 203.99,355.11 206.18,350.00C208.62,344.31 209.61,340.28 210.05,334.26C210.51,327.96 209.81,323.59 207.17,316.38C204.64,309.44 201.78,305.25 194.88,298.37C192.26,295.75 189.05,292.75 187.74,291.71C183.11,287.99 173.57,281.56 166.62,277.48C160.81,274.06 154.92,270.76 151.88,269.21C149.95,268.23 145.90,266.06 142.88,264.37C139.85,262.69 135.86,260.55 134.00,259.63C132.14,258.70 129.22,257.13 127.50,256.13C125.78,255.14 121.62,252.92 118.25,251.20C114.88,249.48 110.66,247.25 108.88,246.25C107.09,245.25 104.22,243.65 102.50,242.69C100.78,241.72 97.80,239.95 95.88,238.75C93.95,237.55 90.69,235.62 88.62,234.46C77.75,228.34 64.96,218.17 58.01,210.11C53.87,205.31 50.18,200.12 48.43,196.62C47.46,194.67 44.70,187.30 43.97,184.68C42.02,177.71 41.72,168.81 43.15,160.12C43.57,157.58 43.90,156.29 45.16,152.38C47.54,144.95 49.04,141.99 53.78,135.47C58.83,128.52 65.54,122.26 73.62,116.96C81.79,111.61 90.98,107.25 101.38,103.81C111.07,100.60 115.89,99.41 126.62,97.53C139.81,95.22 148.84,94.30 163.50,93.75C171.41,93.45 280.09,93.33 280.79,93.62C281.42,93.88 281.54,94.46 281.14,95.34C280.94,95.77 280.44,96.90 280.02,97.84C278.24,101.84 275.79,104.21 272.14,105.44L270.12,106.12L226.50,106.27C179.53,106.42 182.27,106.35 171.12,107.76C165.77,108.43 163.47,108.86 159.75,109.87C158.03,110.33 155.28,111.07 153.62,111.50C147.75,113.03 144.80,114.12 138.02,117.24C129.71,121.07 124.38,124.60 119.35,129.62C113.72,135.23 111.11,139.32 108.25,147.02C106.51,151.70 105.56,158.86 106.01,164.02C106.33,167.83 106.58,168.92 108.15,173.68C109.79,178.65 110.56,180.37 112.39,183.19C117.60,191.20 125.85,198.53 137.99,205.95C140.13,207.25 143.06,209.07 144.50,210.00C148.01,212.24 157.07,217.15 165.50,221.37C169.28,223.27 173.72,225.56 175.38,226.46C177.03,227.37 185.18,231.52 193.50,235.68C223.36,250.63 237.16,258.00 244.25,262.76C245.42,263.55 247.45,264.86 248.75,265.67C253.96,268.92 259.42,273.41 265.05,279.08C271.72,285.78 275.78,291.90 279.35,300.61C283.28,310.18 284.49,322.54 282.59,333.75C281.25,341.71 277.37,351.62 273.08,358.05C269.02,364.14 259.57,374.59 254.44,378.68C252.01,380.62 245.69,384.95 241.25,387.73C233.27,392.72 220.34,398.52 208.90,402.26C201.46,404.69 193.36,406.96 188.38,408.01C187.14,408.27 185.11,408.71 183.88,409.00C180.94,409.67 169.58,411.53 166.38,411.87C165.55,411.96 164.09,412.14 163.12,412.27C154.41,413.45 138.05,414.71 127.62,415.00C117.49,415.28 41.90,415.45 18.38,415.25Z"/><path class="l" d="M635.75,415.31C630.91,415.04 627.33,414.33 622.12,412.63C612.66,409.53 607.02,404.29 598.06,390.25C596.96,388.53 595.47,386.06 594.75,384.75C594.03,383.44 592.47,380.90 591.28,379.10C590.10,377.29 587.63,373.36 585.80,370.35C583.98,367.34 581.49,363.30 580.28,361.38C579.06,359.45 577.37,356.58 576.52,355.00C575.66,353.42 573.87,350.50 572.54,348.50C568.98,343.17 563.97,335.17 556.49,322.88C555.07,320.54 552.42,316.26 550.61,313.38C548.80,310.49 546.39,306.50 545.26,304.51C544.13,302.53 542.66,300.11 542.01,299.14C541.36,298.17 539.39,295.07 537.63,292.25C535.87,289.43 533.34,285.38 532.01,283.25C530.67,281.12 528.44,277.39 527.06,274.96C525.68,272.54 523.65,269.22 522.56,267.59C519.89,263.59 516.20,257.66 512.62,251.62C510.99,248.88 508.51,244.82 507.11,242.62C502.35,235.16 498.40,228.62 496.38,224.88C495.16,222.62 488.15,211.28 487.10,209.88C486.80,209.46 485.60,207.49 484.44,205.50C481.37,200.22 476.86,192.62 474.49,188.75C473.36,186.89 471.21,183.35 469.73,180.88C468.24,178.40 466.82,176.04 466.57,175.63C465.77,174.31 465.40,174.50 463.70,177.17C462.84,178.52 460.98,181.34 459.56,183.44C456.93,187.34 455.55,189.49 450.63,197.38C449.09,199.85 445.04,206.15 441.63,211.38C438.22,216.60 434.87,221.83 434.18,223.00C432.82,225.29 428.29,232.15 426.19,235.08C425.04,236.69 423.10,239.74 419.97,244.88C419.38,245.84 416.74,249.89 414.11,253.88C411.48,257.86 407.60,263.77 405.50,267.00C403.39,270.23 398.95,276.98 395.63,282.00C392.30,287.02 388.59,292.70 387.38,294.62C384.28,299.55 376.11,311.98 373.32,316.00C370.89,319.50 362.44,332.23 354.00,345.09C351.32,349.18 347.45,354.96 345.41,357.95C343.37,360.93 340.97,364.50 340.07,365.88C339.17,367.25 336.91,370.66 335.03,373.44C328.90,382.57 327.18,385.15 322.62,392.13C320.15,395.92 316.88,400.79 315.36,402.95C313.84,405.11 312.18,407.51 311.67,408.29C311.15,409.07 310.34,410.01 309.85,410.37C308.64,411.30 304.84,413.06 302.00,414.02C299.65,414.81 299.56,414.82 292.53,415.05C286.26,415.26 285.38,415.24 285.04,414.90C284.70,414.55 284.73,414.42 285.35,413.57C285.73,413.05 286.67,411.67 287.43,410.50C290.06,406.48 298.04,394.62 299.97,391.88C301.03,390.36 302.58,388.00 303.42,386.62C304.26,385.25 307.16,380.75 309.86,376.62C318.18,363.93 320.78,359.92 323.38,355.86C324.75,353.71 326.91,350.47 328.18,348.66C329.44,346.85 331.69,343.47 333.18,341.15C334.66,338.83 339.54,331.40 344.02,324.65C348.50,317.90 353.08,310.86 354.19,309.00C355.31,307.14 357.01,304.50 357.98,303.12C361.33,298.35 366.49,290.61 368.43,287.46C370.63,283.88 377.79,273.06 381.26,268.07C382.53,266.25 384.58,263.04 385.82,260.95C387.06,258.86 389.08,255.68 390.31,253.88C394.15,248.29 399.04,240.84 402.38,235.50C404.14,232.68 406.33,229.25 407.25,227.88C408.16,226.50 409.51,224.37 410.25,223.14C410.99,221.90 412.37,219.88 413.31,218.64C414.25,217.39 416.06,214.57 417.32,212.38C418.59,210.18 421.31,205.82 423.37,202.70C429.83,192.94 438.32,179.68 441.66,174.12C442.57,172.61 443.97,170.47 444.76,169.38C445.55,168.28 447.55,165.12 449.19,162.35C450.84,159.59 453.42,155.49 454.93,153.23C456.44,150.97 458.69,147.49 459.93,145.50C461.16,143.51 463.41,140.02 464.93,137.75C466.44,135.48 469.00,131.49 470.62,128.88C472.24,126.26 474.49,122.78 475.62,121.12C476.74,119.47 478.94,115.99 480.49,113.38C482.04,110.76 484.05,107.57 484.97,106.27C485.88,104.98 487.48,102.56 488.52,100.90C489.84,98.79 490.58,97.85 490.94,97.80C491.37,97.73 491.75,98.15 492.88,99.92C497.72,107.54 499.94,111.14 502.23,115.12C503.66,117.60 505.73,120.97 506.83,122.62C507.93,124.28 510.18,127.99 511.83,130.88C513.48,133.76 515.67,137.41 516.69,138.99C517.72,140.57 519.91,144.11 521.56,146.86C523.21,149.62 525.07,152.61 525.70,153.50C526.33,154.39 528.50,157.82 530.53,161.12C532.56,164.43 535.05,168.42 536.08,170.00C539.13,174.70 543.24,181.33 546.00,186.00C549.94,192.67 554.69,200.41 556.13,202.50C557.89,205.04 559.75,208.09 562.56,213.00C563.86,215.27 565.99,218.76 567.30,220.75C568.60,222.74 570.72,226.12 572.00,228.25C573.28,230.38 575.08,233.25 576.00,234.62C576.91,236.00 579.10,239.49 580.86,242.38C582.62,245.26 585.08,249.14 586.33,251.00C587.58,252.86 589.47,255.84 590.54,257.62C597.09,268.62 602.82,277.84 606.20,282.83C607.15,284.23 609.31,287.68 611.01,290.50C612.70,293.32 615.17,297.26 616.50,299.25C617.83,301.24 620.24,305.01 621.87,307.62C623.49,310.24 625.68,313.67 626.74,315.25C627.79,316.83 630.21,320.69 632.11,323.83C634.01,326.97 636.25,330.46 637.08,331.58C637.92,332.71 639.58,335.20 640.77,337.12C644.40,342.99 651.77,354.82 655.32,360.50C657.17,363.46 659.17,366.72 659.76,367.75C660.34,368.78 661.41,370.47 662.13,371.50C662.85,372.53 664.37,374.84 665.50,376.62C666.64,378.41 668.36,381.11 669.32,382.62C670.29,384.14 672.08,387.06 673.32,389.12C674.55,391.19 676.33,394.02 677.28,395.43C682.25,402.79 689.00,413.79 689.00,414.54C689.00,414.80 688.84,415.08 688.63,415.16C688.28,415.29 638.03,415.44 635.75,415.31Z"/><path class="g" d="M556.88,414.83C554.72,414.67 548.72,413.74 546.50,413.22C536.17,410.81 529.00,405.49 521.76,394.88C520.83,393.50 518.77,390.24 517.19,387.62C515.62,385.01 512.92,380.62 511.20,377.88C502.83,364.52 498.42,357.36 496.88,354.62C495.94,352.98 494.03,349.94 492.63,347.88C491.23,345.81 488.71,341.84 487.03,339.05C485.36,336.25 483.11,332.65 482.04,331.05C480.96,329.44 479.43,327.00 478.63,325.62C475.80,320.77 473.52,317.02 471.07,313.22C469.71,311.11 467.57,307.69 466.33,305.62C465.09,303.56 463.31,300.69 462.37,299.25C461.43,297.81 459.32,294.43 457.67,291.75C456.03,289.07 454.00,285.87 453.17,284.64C450.52,280.70 445.00,270.68 445.00,269.82C445.00,269.61 445.36,268.80 445.80,268.03C447.02,265.90 452.22,257.74 452.99,256.75C453.78,255.74 458.58,248.77 462.63,242.75C464.16,240.48 465.61,238.59 465.85,238.54C466.54,238.41 467.18,239.17 469.07,242.38C470.04,244.03 471.90,247.01 473.21,249.00C474.52,250.99 476.63,254.37 477.90,256.50C481.65,262.80 482.20,263.69 484.87,267.75C486.28,269.88 488.30,273.03 489.37,274.75C490.44,276.47 492.53,279.73 494.01,282.00C495.49,284.27 497.01,286.69 497.39,287.38C498.44,289.25 503.52,297.17 506.13,301.00C508.42,304.36 511.01,308.60 515.00,315.50C516.15,317.49 517.46,319.69 517.90,320.38C518.34,321.06 519.79,323.37 521.14,325.50C522.48,327.63 524.24,330.30 525.04,331.42C525.85,332.55 527.63,335.36 528.99,337.67C530.35,339.98 532.13,342.94 532.94,344.25C536.43,349.85 538.90,353.76 540.21,355.75C541.66,357.96 545.40,364.07 547.55,367.75C549.31,370.75 552.92,376.52 555.61,380.62C557.98,384.23 559.45,386.67 562.37,391.88C563.30,393.52 564.31,395.21 564.62,395.62C566.03,397.54 567.49,399.78 568.37,401.38C568.89,402.34 570.30,404.70 571.49,406.62C575.87,413.72 576.13,414.24 575.53,414.61C575.27,414.76 558.70,414.96 556.88,414.83Z"/><g transform="translate(-644 360)"><path class="l" d="M915.00,420.35C892.44,419.46 881.99,418.12 866.38,414.14C857.23,411.80 850.66,409.54 841.50,405.57C835.88,403.13 826.28,397.88 821.18,394.45C810.70,387.40 800.25,377.73 788.15,363.89C782.14,357.01 777.75,352.03 775.81,349.88C773.53,347.35 767.38,340.30 764.21,336.58C762.88,335.02 760.72,332.60 759.42,331.19C758.11,329.78 755.99,327.32 754.71,325.72C753.43,324.13 751.59,321.93 750.62,320.83C749.66,319.74 746.44,316.04 743.46,312.61C734.77,302.59 733.61,301.28 728.87,296.07C726.40,293.35 723.42,289.95 722.26,288.52C721.10,287.08 719.30,285.00 718.26,283.88C710.25,275.28 703.75,267.55 703.75,266.63C703.75,266.44 703.97,266.21 704.23,266.13C704.50,266.05 708.35,265.86 712.79,265.72C725.00,265.33 730.81,265.00 736.62,264.37C738.41,264.18 741.00,263.90 742.38,263.75C747.30,263.23 761.65,260.60 765.74,259.46C771.53,257.84 773.31,257.31 777.75,255.83C783.76,253.83 794.35,249.50 798.38,247.40C806.31,243.26 816.03,236.42 822.54,230.41C825.85,227.35 829.88,222.93 833.30,218.62C837.30,213.58 841.95,204.25 843.95,197.24C847.19,185.92 846.88,170.74 843.18,159.28C842.14,156.05 838.25,148.35 835.74,144.53C832.90,140.23 827.68,134.91 822.03,130.55C815.16,125.26 815.14,125.25 806.21,121.29C795.21,116.41 788.34,114.38 775.62,112.26C767.15,110.85 764.97,110.55 761.07,110.25C759.17,110.10 756.22,109.87 754.50,109.73C747.33,109.16 735.34,108.98 698.50,108.92C659.87,108.84 659.61,108.84 657.73,108.32C654.91,107.54 653.53,106.80 651.99,105.26C650.53,103.80 648.82,100.79 647.73,97.78L647.16,96.18L647.73,95.72C648.27,95.27 650.02,95.26 696.34,95.28C753.12,95.30 807.91,95.63 813.00,95.98C828.45,97.06 835.70,98.19 849.75,101.74C859.30,104.16 871.66,109.58 879.50,114.79C886.13,119.20 894.56,126.64 898.55,131.62C900.92,134.59 904.99,140.71 906.94,144.25C909.50,148.89 912.32,155.91 913.24,159.94C914.76,166.62 914.88,167.82 914.88,177.75C914.88,186.26 914.84,187.09 914.28,190.12C913.08,196.77 910.68,203.74 907.31,210.35C903.15,218.54 893.90,230.07 887.77,234.70C886.73,235.48 884.85,236.98 883.59,238.03C880.97,240.23 878.90,241.66 874.50,244.30C867.32,248.61 862.05,251.15 856.20,253.11C855.56,253.33 853.76,254.11 852.20,254.85C849.01,256.35 846.16,257.33 841.25,258.60C839.39,259.08 837.26,259.65 836.50,259.86C826.46,262.68 809.68,265.48 796.75,266.50C791.08,266.94 791.00,266.96 791.00,267.53C791.00,268.20 796.71,274.92 803.73,282.52C805.43,284.36 807.50,286.72 808.32,287.75C809.94,289.80 813.27,293.56 818.47,299.23C820.31,301.23 822.69,303.94 823.75,305.25C825.79,307.75 826.98,309.09 831.94,314.48C833.62,316.31 836.66,319.79 838.69,322.22C840.71,324.64 844.01,328.31 846.02,330.38C848.02,332.44 850.54,335.25 851.62,336.62C854.83,340.72 857.63,343.90 861.50,347.88C863.50,349.94 865.93,352.58 866.88,353.75C869.79,357.33 871.93,359.70 876.25,364.12C878.53,366.46 882.03,370.22 884.01,372.48C886.00,374.73 887.91,376.89 888.25,377.27C888.59,377.65 889.94,378.89 891.25,380.02C892.56,381.14 894.91,383.26 896.48,384.72C901.03,388.95 905.87,392.81 909.25,394.91C910.97,395.97 913.50,397.60 914.88,398.51C918.04,400.62 919.41,401.35 924.09,403.41C932.72,407.20 938.56,409.25 946.38,411.22C956.27,413.72 956.42,413.78 957.04,415.64C957.60,417.30 957.62,418.40 957.08,418.61C956.68,418.76 955.25,418.92 949.00,419.51C944.95,419.90 919.42,420.53 915.00,420.35Z"/><path class="l" d="M1121.63,420.44C1120.71,419.13 1119.75,417.58 1116.54,412.25C1114.68,409.16 1112.69,405.89 1112.12,405.00C1111.55,404.11 1110.32,402.02 1109.39,400.38C1108.46,398.73 1107.16,396.59 1106.51,395.62C1104.30,392.34 1094.23,375.32 1091.45,370.15C1090.48,368.35 1088.82,365.58 1087.76,364.00C1085.29,360.32 1081.67,354.37 1077.57,347.25C1074.30,341.59 1069.26,333.21 1065.08,326.50C1063.84,324.51 1062.03,321.47 1061.07,319.75C1060.11,318.03 1058.22,314.82 1056.88,312.62C1050.81,302.68 1046.21,295.02 1043.75,290.75C1042.29,288.21 1039.82,284.10 1038.28,281.62C1036.73,279.15 1034.26,275.10 1032.78,272.62C1031.30,270.15 1029.40,267.00 1028.57,265.62C1027.74,264.25 1025.57,260.59 1023.74,257.50C1021.91,254.41 1018.99,249.57 1017.25,246.75C1015.51,243.93 1013.10,239.90 1011.90,237.79C1010.69,235.68 1008.38,231.86 1006.77,229.29C1003.03,223.33 998.95,216.49 995.67,210.69C994.25,208.18 992.13,204.61 990.95,202.75C989.78,200.89 987.45,197.04 985.79,194.18C984.12,191.33 982.34,188.34 981.83,187.56C981.32,186.77 980.05,184.66 978.99,182.88C977.94,181.09 976.23,178.22 975.20,176.50C974.17,174.78 972.51,171.97 971.50,170.25C970.49,168.53 968.78,165.74 967.69,164.04C966.61,162.34 965.09,159.81 964.32,158.41C962.85,155.76 960.25,151.39 956.11,144.62C950.77,135.90 949.50,133.75 947.78,130.57C945.79,126.87 944.59,124.86 942.51,121.75C941.72,120.58 940.37,118.39 939.49,116.88C938.61,115.36 936.49,111.88 934.78,109.12C927.80,97.89 927.72,97.76 928.61,97.41C928.81,97.34 937.28,97.27 947.43,97.26C970.30,97.24 976.28,97.54 982.31,98.99C987.99,100.36 992.34,102.16 997.12,105.12C1003.67,109.18 1006.85,112.15 1010.89,118.00C1011.69,119.17 1013.33,121.50 1014.53,123.17C1016.62,126.11 1018.53,129.16 1021.22,133.83C1021.91,135.05 1023.26,137.13 1024.21,138.46C1025.16,139.79 1026.70,142.22 1027.63,143.88C1029.90,147.90 1032.02,151.43 1033.47,153.59C1035.44,156.53 1042.31,167.42 1044.13,170.50C1047.74,176.59 1051.82,183.26 1053.91,186.50C1056.24,190.10 1057.36,191.98 1060.26,197.12C1061.27,198.91 1062.90,201.61 1063.89,203.12C1064.89,204.64 1067.10,208.18 1068.81,211.00C1070.53,213.82 1072.63,217.18 1073.48,218.46C1074.34,219.75 1076.33,223.07 1077.91,225.84C1079.49,228.61 1081.89,232.56 1083.25,234.62C1086.89,240.18 1092.94,250.14 1099.09,260.72C1099.92,262.15 1101.47,264.57 1102.54,266.10C1104.53,268.97 1106.53,272.28 1109.26,277.25C1110.13,278.83 1111.81,281.64 1113.00,283.50C1114.19,285.36 1115.94,288.14 1116.89,289.69C1117.85,291.24 1119.34,293.66 1120.22,295.07C1122.17,298.18 1127.53,306.95 1129.58,310.38C1130.40,311.75 1132.17,314.56 1133.51,316.62C1134.84,318.69 1137.04,322.29 1138.39,324.62C1139.74,326.96 1141.82,330.34 1143.02,332.12C1144.23,333.91 1146.10,337.01 1147.19,339.00C1150.23,344.57 1151.06,345.86 1151.67,345.95C1152.33,346.05 1152.50,345.83 1156.98,339.25C1158.90,336.43 1161.19,333.23 1162.08,332.12C1164.66,328.91 1170.05,321.17 1174.61,314.15C1175.67,312.51 1177.47,309.92 1178.60,308.40C1179.73,306.87 1181.26,304.73 1182.00,303.62C1182.73,302.52 1184.14,300.56 1185.13,299.25C1186.12,297.94 1188.22,294.96 1189.79,292.62C1193.01,287.85 1194.36,285.93 1197.52,281.68C1198.72,280.06 1200.70,277.27 1201.92,275.46C1203.13,273.66 1205.52,270.20 1207.23,267.78C1208.93,265.36 1211.36,261.91 1212.61,260.12C1213.87,258.34 1215.74,255.71 1216.76,254.29C1217.79,252.87 1220.23,249.38 1222.20,246.54C1226.77,239.93 1229.37,236.28 1231.85,233.00C1233.78,230.45 1236.72,226.07 1239.07,222.25C1239.70,221.22 1240.80,219.65 1241.52,218.77C1243.89,215.84 1251.59,204.98 1254.48,200.50C1255.50,198.92 1257.14,196.56 1258.12,195.25C1259.11,193.94 1260.68,191.75 1261.62,190.38C1262.55,189.00 1264.08,186.92 1265.01,185.75C1265.94,184.57 1267.96,181.65 1269.50,179.25C1271.04,176.84 1273.40,173.41 1274.74,171.62C1276.08,169.84 1277.86,167.35 1278.70,166.09C1279.53,164.84 1281.83,161.52 1283.81,158.72C1285.78,155.92 1289.06,151.19 1291.09,148.22C1293.12,145.24 1295.73,141.59 1296.88,140.09C1298.03,138.60 1300.59,134.96 1302.57,132.00C1304.55,129.04 1307.58,124.83 1309.30,122.62C1311.02,120.42 1313.64,116.83 1315.13,114.62C1319.39,108.32 1322.41,104.14 1323.72,102.70C1325.57,100.69 1329.50,98.49 1333.74,97.09C1336.67,96.13 1337.85,95.97 1341.88,95.98C1345.08,95.99 1345.88,96.08 1347.41,96.57C1349.51,97.25 1350.07,97.64 1349.86,98.29C1349.78,98.55 1348.71,100.25 1347.48,102.07C1346.25,103.89 1344.29,106.78 1343.13,108.50C1340.68,112.13 1339.28,114.12 1336.00,118.66C1334.69,120.47 1332.41,123.74 1330.92,125.91C1326.76,132.00 1323.74,136.29 1322.47,137.91C1321.84,138.71 1319.96,141.40 1318.30,143.88C1316.64,146.35 1314.57,149.39 1313.69,150.62C1307.66,159.15 1298.97,171.65 1292.97,180.43C1291.64,182.39 1289.74,185.01 1288.76,186.26C1287.78,187.50 1286.56,189.22 1286.07,190.07C1284.50,192.77 1281.77,196.73 1278.38,201.25C1276.58,203.66 1273.65,207.76 1271.88,210.38C1270.11,212.99 1267.53,216.70 1266.13,218.62C1262.75,223.30 1259.89,227.38 1255.92,233.23C1252.29,238.57 1245.95,247.51 1243.15,251.24C1242.16,252.55 1239.85,255.88 1238.01,258.62C1236.17,261.38 1233.24,265.54 1231.50,267.88C1228.86,271.41 1224.38,277.78 1220.84,283.00C1220.42,283.62 1219.08,285.53 1217.87,287.25C1216.65,288.97 1214.51,292.01 1213.12,294.00C1211.73,295.99 1209.70,298.82 1208.61,300.28C1207.52,301.74 1205.90,304.11 1205.01,305.53C1204.13,306.96 1201.81,310.26 1199.87,312.88C1195.83,318.30 1192.65,322.78 1188.54,328.88C1185.85,332.85 1183.15,336.66 1177.17,344.97C1175.81,346.84 1173.41,350.34 1171.83,352.75C1168.67,357.54 1167.46,359.24 1164.23,363.38C1163.05,364.89 1161.77,366.63 1161.39,367.25C1161.00,367.87 1159.81,369.56 1158.74,371.00C1157.67,372.44 1156.14,374.60 1155.33,375.80C1154.53,377.00 1152.67,379.64 1151.19,381.68C1146.48,388.15 1142.84,393.27 1140.20,397.10C1138.78,399.15 1136.66,402.13 1135.49,403.73C1134.31,405.32 1132.97,407.19 1132.50,407.88C1132.03,408.56 1130.77,410.23 1129.69,411.58C1128.62,412.94 1127.16,414.91 1126.45,415.96C1124.54,418.80 1122.75,421.00 1122.36,421.00C1122.18,421.00 1121.85,420.75 1121.63,420.44Z"/></g></svg>